{
	"asset":{
		"generator":"Khronos glTF Blender I/O v4.2.60",
		"version":"2.0"
	},
	"scene":0,
	"scenes":[
		{
			"extras":{
				"keentools_gt_settings":{},
				"keentools_ft_settings":{}
			},
			"name":"Scene",
			"nodes":[
				0,
				1
			]
		}
	],
	"nodes":[
		{
			"mesh":0,
			"name":"head",
			"rotation":[
				0.7071068286895752,
				0,
				0,
				0.7071068286895752
			]
		},
		{
			"mesh":1,
			"name":"body",
			"rotation":[
				0.7071068286895752,
				0,
				0,
				0.7071068286895752
			]
		}
	],
	"materials":[
		{
			"doubleSided":true,
			"name":"Material.001",
			"pbrMetallicRoughness":{
				"baseColorTexture":{
					"index":0
				},
				"metallicFactor":0,
				"roughnessFactor":0.5
			}
		},
		{
			"doubleSided":true,
			"name":"Material.002",
			"pbrMetallicRoughness":{
				"baseColorTexture":{
					"index":1
				},
				"metallicFactor":0,
				"roughnessFactor":0.5
			}
		}
	],
	"meshes":[
		{
			"name":"Mesh1_Mesh1.001",
			"primitives":[
				{
					"attributes":{
						"POSITION":0,
						"NORMAL":1,
						"TEXCOORD_0":2
					},
					"indices":3,
					"material":0
				}
			]
		},
		{
			"name":"Mesh1_Mesh1.002",
			"primitives":[
				{
					"attributes":{
						"POSITION":4,
						"NORMAL":5,
						"TEXCOORD_0":6
					},
					"indices":7,
					"material":1
				}
			]
		}
	],
	"textures":[
		{
			"sampler":0,
			"source":0
		},
		{
			"sampler":0,
			"source":1
		}
	],
	"images":[
		{
			"mimeType":"image/png",
			"name":"texture_0",
			"uri":"texture_0.png"
		},
		{
			"mimeType":"image/png",
			"name":"texture_0",
			"uri":"texture_0-1.png"
		}
	],
	"accessors":[
		{
			"bufferView":0,
			"componentType":5126,
			"count":30052,
			"max":[
				0.45074400305747986,
				0.6251220107078552,
				0.42978399991989136
			],
			"min":[
				-0.45300498604774475,
				-0.5785030126571655,
				-0.9882259964942932
			],
			"type":"VEC3"
		},
		{
			"bufferView":1,
			"componentType":5126,
			"count":30052,
			"type":"VEC3"
		},
		{
			"bufferView":2,
			"componentType":5126,
			"count":30052,
			"type":"VEC2"
		},
		{
			"bufferView":3,
			"componentType":5123,
			"count":117894,
			"type":"SCALAR"
		},
		{
			"bufferView":4,
			"componentType":5126,
			"count":15712,
			"max":[
				0.9212620258331299,
				0.14995500445365906,
				1.0021040439605713
			],
			"min":[
				-0.9235230088233948,
				-0.6203140020370483,
				0.1388690024614334
			],
			"type":"VEC3"
		},
		{
			"bufferView":5,
			"componentType":5126,
			"count":15712,
			"type":"VEC3"
		},
		{
			"bufferView":6,
			"componentType":5126,
			"count":15712,
			"type":"VEC2"
		},
		{
			"bufferView":7,
			"componentType":5123,
			"count":67872,
			"type":"SCALAR"
		}
	],
	"bufferViews":[
		{
			"buffer":0,
			"byteLength":360624,
			"byteOffset":0,
			"target":34962
		},
		{
			"buffer":0,
			"byteLength":360624,
			"byteOffset":360624,
			"target":34962
		},
		{
			"buffer":0,
			"byteLength":240416,
			"byteOffset":721248,
			"target":34962
		},
		{
			"buffer":0,
			"byteLength":235788,
			"byteOffset":961664,
			"target":34963
		},
		{
			"buffer":0,
			"byteLength":188544,
			"byteOffset":1197452,
			"target":34962
		},
		{
			"buffer":0,
			"byteLength":188544,
			"byteOffset":1385996,
			"target":34962
		},
		{
			"buffer":0,
			"byteLength":125696,
			"byteOffset":1574540,
			"target":34962
		},
		{
			"buffer":0,
			"byteLength":135744,
			"byteOffset":1700236,
			"target":34963
		}
	],
	"samplers":[
		{
			"magFilter":9729,
			"minFilter":9987
		}
	],
	"buffers":[
		{
			"byteLength":1835980,
			"uri":"model.bin"
		}
	]
}
