<svg width="3014" height="2261" viewBox="0 0 3014 2261" fill="none" xmlns="http://www.w3.org/2000/svg">
<path d="M1239.5 775.5C1240.66 801.347 1244.68 839.46 1252.95 876M1239.5 775.5C1226.7 724.7 1210.5 691.333 1204 681M1239.5 775.5C1233.33 683.167 1235.3 499.4 1292.5 503C1349.7 506.6 1356 521.167 1352 528C1382.5 547.167 1454.4 576.7 1498 541.5C1552.5 497.5 1582.5 496.5 1584 468.5C1585.5 440.5 1600.5 503 1629 510C1651.8 515.6 1642.83 521.333 1635.5 523.5C1648.33 535 1679.3 553.2 1700.5 534C1721.7 514.8 1754 557.667 1767.5 581.5M1688 980C1685.5 1010.5 1566 1103 1496 1081.5C1435 1093 1366.5 1027 1309.5 980C1300.56 976.179 1292.65 969.019 1285.69 959.5M1688 980C1682.4 983.2 1680 978 1679.5 975M1688 980L1700.5 994.5M1679.5 975C1667.67 975.333 1643.2 971.5 1640 953.5C1642 935.1 1655.17 929.5 1661.5 929C1673 907.333 1702.2 860.1 1727 844.5C1732.2 825.3 1745.5 809.167 1751.5 803.5C1765.52 798.377 1788.33 790.81 1809 785.616M1679.5 975C1689.33 937 1715.1 858.5 1739.5 848.5C1770 836 1729 793.5 1933 772C1955.4 768 1964.67 785.667 1966.5 795M1842 724.5C1842 742.1 1856.33 766.5 1863.5 776.5C1861.67 775.167 1856.5 774.1 1850.5 780.5C1842.76 778.473 1826.66 781.179 1809 785.616M1842 724.5C1815 713.5 1803 676 1803 678C1803 680 1741.5 660 1767.5 581.5M1842 724.5C1830.33 736.077 1807.4 764.508 1809 785.616M1767.5 581.5C1785.9 581.5 1795.83 600.167 1798.5 609.5C1807.67 615.333 1825.9 628.7 1825.5 635.5M1825.5 635.5C1825 644 1869.5 676 1877 673C1884.5 670 1930.5 744.5 1929 748.5C1954.6 748.5 1972 767.167 1977.5 776.5C2025.17 863.667 2129.5 1045.5 2137 1033.5C2146.6 1057.5 2161.67 1066.17 2168 1067.5M1825.5 635.5C1865.5 391 1833 494.5 1846.5 451.5C1860 408.5 1824 379.5 1826.5 375.5C1829 371.5 1797.5 315 1785.5 319C1773.5 323 1753 287.5 1755.5 285.5C1758 283.5 1754.5 277 1753 279.5C1751.5 282 1734.5 276 1729 263C1723.5 250 1696.5 284 1704.5 258C1712.5 232 1683 221 1680 223C1677 225 1647 220.5 1639 212C1631 203.5 1603.5 197 1600.5 201.5C1597.5 206 1576 191 1571 185.5C1566 180 1566.5 196 1559 186.5C1551.5 177 1513 182.5 1505.5 186.5C1498 190.5 1476.5 200.5 1459.5 192.5C1445.9 186.1 1396.83 202.5 1374 211.5C1406.83 186.667 1437.7 158.8 1298.5 246C1124.5 355 1174.5 631.5 1204 681M2074 1211.5C2048.83 1171.33 1996.4 1092.2 1988 1097C1979.6 1101.8 1964.83 1092.33 1958.5 1087C1934.5 1086.17 1880.4 1075.5 1856 1039.5C1825.31 1028.48 1746.64 1019.64 1714.5 1006.38M1700.5 994.5C1701.5 970.167 1707.08 906.426 1746.5 870C1786 833.5 1845 838 1856 830.5M1700.5 994.5C1700.5 998.87 1705.79 1002.78 1714.5 1006.38M1252.95 876C1253.07 876.5 1225.5 858.5 1230.5 836C1210.39 818.305 1201.28 783.79 1197.97 772M1252.95 876C1260.24 908.219 1270.84 939.215 1285.69 959.5M1196.5 768C1196.7 767.609 1197.16 769.132 1197.97 772M1197.97 772C1151 705.5 1159.17 677.167 1174.5 668.5C1179.83 667.333 1193.2 668.2 1204 681M1554 649.5L1561 616.5C1612.17 606.833 1717.8 600.9 1731 654.5C1705 616.5 1553 649.5 1557 649.5M1456 775.5C1443 789.167 1424.8 820.4 1456 836C1463.6 815.2 1491.17 838.667 1504 853C1506 854.333 1510.7 856.2 1513.5 853C1517 849 1549 822 1564.5 839.5C1576.9 853.5 1582.67 839.333 1584 830.5C1586.17 821.667 1585.3 798.3 1564.5 775.5M1494 693C1494 763 1491.33 782.167 1490 783M1528 693C1537.2 765 1545.5 783 1548.5 783M1403 922C1417 912 1455.7 895 1498.5 907C1515.7 909.4 1526 908 1529 907C1554.5 910.167 1606.1 919 1608.5 929M1403 922C1420.2 944 1451.5 964.5 1465 972C1481.17 974.667 1517.3 979 1532.5 975C1542.5 986 1611.5 941.5 1608.5 929M1403 922C1423 922.333 1463.4 923.6 1465 926C1467 929 1507.5 936 1509.5 934C1511.5 932 1553 929 1557 931.5C1561 934 1582 939 1584 936.5C1586 934 1610.67 932 1608.5 929M1714.5 1006.38C1754.5 983 1746.5 1003 1758 945C1788 929 1770 912 1781.5 909C1793 906 1831.5 909.5 1832 899.5C1832.34 892.795 1841.89 913.517 1859 921.718M1892.5 968.5C1882.83 962.667 1868.7 944.8 1889.5 920C1877.64 926.754 1867.41 925.747 1859 921.718M1767.5 941C1787.17 948 1828.5 960.3 1836.5 953.5C1846.5 945 1854.5 934.435 1859 921.718M1285.69 959.5C1280 1094 1276.87 1013.5 1285.69 1098.5M1700.5 998.5C1698.33 1036.17 1692.8 1111 1688 1109M1362.5 659.918C1350.81 664.935 1338.26 673.127 1325 685.5C1361.8 696.3 1421 687 1446 681C1438.3 670.04 1422.96 657.105 1402 654.025M1362.5 659.918C1360.83 670.112 1362.8 690 1384 688C1410.5 685.5 1412.5 659.05 1402 654.025M1362.5 659.918C1377.15 653.627 1390.43 652.325 1402 654.025M1613 665.5C1612 674.667 1615.3 693 1636.5 693C1663 693 1660.47 666.276 1658.49 663.388M1658.49 663.388C1626.57 652.242 1592.53 670.615 1575.5 685.5C1591.83 693.667 1638.5 706.6 1694.5 693C1683.65 677.011 1671.24 667.842 1658.49 663.388ZM1279 662.5C1282 638.5 1320.2 593.7 1449 606.5C1466.6 610.5 1464 628.5 1460.5 637C1411.5 631.833 1306.6 629.7 1279 662.5Z" stroke="black" stroke-width="4"/>
<path d="M1805.5 680.5C1791.5 717.167 1764.7 791.8 1769.5 797" stroke="black" stroke-width="4"/>
<path d="M1991.5 2063C1995.17 2084.33 1991.7 2121.2 1948.5 2098C1839.5 2015 1736.12 2019 1706 2019C1742 2011 1818.5 2041.5 1848 2063C1877.5 2084.5 1838 2125 1830.5 2127C1824.5 2128.6 1735 2114.67 1691 2107.5C1644.2 2124.7 1472.5 2107.5 1394.5 2063C1360.83 2054.33 1274.4 2039.6 1198 2050C1102.5 2063 366.5 2027.5 382.5 2009C333.5 2009 345.063 1932.75 339 1908.5C316.5 1818.5 529.5 1496.5 581.5 1446.5M1991.5 2063C1955.33 2024.5 1886.79 1959.27 1880.5 1956C1855.5 1943 1744 1923.5 1749.5 1943M1991.5 2063C2013.67 2076.67 2061.2 2097.3 2074 2070.5C2086.8 2043.7 2039 2010.33 2013.5 1997L1931 1930M1931 1930C1887 1913.33 1798.8 1882.5 1798 1892.5C1797.2 1902.5 1777.67 1884.33 1768 1874M1931 1930C1932.5 1920 1898.3 1885.7 1749.5 1828.5C1722.7 1816.5 1699.33 1829.83 1691 1838C1622 1837.67 1484.5 1840.7 1486.5 1855.5C1488.15 1867.7 1171.85 1824.48 962 1788.59M861.5 1635C841.333 1666.67 796.9 1733.5 780.5 1747.5C773.515 1753.46 853.542 1770.05 962 1788.59M861.5 1635C886 1614.5 935.2 1575.4 936 1583C937 1592.5 947 1674 953.5 1674C960 1674 952 1786.89 962 1788.59M861.5 1635C886.5 1597.5 875.4 1495.4 631 1387C605.4 1387 587.333 1426.67 581.5 1446.5M581.5 1446.5C568.333 1430.17 544.8 1393.8 556 1379C570 1360.5 844.499 1045 953.5 1036.5C963.5 1003.5 1023.5 998 1044.5 1015C1061.3 1028.6 1109.17 1014.67 1131 1006C1143.17 985.667 1187.6 942.5 1268 932.5" stroke="black" stroke-width="4"/>
<path d="M1945.5 1895C1954 1765 1982.5 1509.7 2028.5 1528.5C2046.9 1536.1 2047.5 1561.33 2045.5 1573C2076.17 1602.17 2140.8 1660.5 2154 1660.5M2154 1660.5C2167.2 1660.5 2152.17 1650.17 2143 1645C2135.33 1627.17 2136.3 1580.9 2201.5 1538.5C2220.3 1546.5 2263.67 1699.83 2283 1775.5L2343 1877.5M2154 1660.5C2208.5 1697.5 2307.5 1865 2374 1925L2431.5 1965.5C2438 1978.33 2458.4 2003.7 2488 2002.5C2526.5 2028 2625.5 2002 2625 1992C2624.5 1982 2686 1940 2677 1877.5C2668 1815 2672 1864 2663 1824C2670.2 1782.8 2646 1702.17 2633 1667C2601.83 1597.83 2506.9 1435.8 2376.5 1341C2355.5 1308.5 2182 1137 2169 1069.5M2201.5 1535.5L2075 1211M1286.5 1098C1401 1368.5 1603 1313.5 1689 1110" stroke="black" stroke-width="4"/>
</svg>
