<svg width="3014" height="2261" fill="none" xmlns="http://www.w3.org/2000/svg">
<path d="M1239.5 775.5c1.16 25.847 5.18 63.96 13.45 100.5m-13.45-100.5c-12.8-50.8-29-84.167-35.5-94.5m35.5 94.5c-6.17-92.333-4.2-276.1 53-272.5 57.2 3.6 63.5 18.167 59.5 25 30.5 19.167 102.4 48.7 146 13.5 54.5-44 84.5-45 86-73s16.5 34.5 45 41.5c22.8 5.6 13.83 11.333 6.5 13.5 12.83 11.5 43.8 29.7 65 10.5 21.2-19.2 53.5 23.667 67 47.5M1688 980c-2.5 30.5-122 123-192 101.5-61 11.5-129.5-54.5-186.5-101.5-8.94-3.821-16.85-10.981-23.81-20.5M1688 980c-5.6 3.2-8-2-8.5-5m8.5 5 12.5 14.5m-21-19.5c-11.83.333-36.3-3.5-39.5-21.5 2-18.4 15.17-24 21.5-24.5 11.5-21.667 40.7-68.9 65.5-84.5 5.2-19.2 18.5-35.333 24.5-41 14.02-5.123 36.83-12.69 57.5-17.884M1679.5 975c9.83-38 35.6-116.5 60-126.5 30.5-12.5-10.5-55 193.5-76.5 22.4-4 31.67 13.667 33.5 23M1842 724.5c0 17.6 14.33 42 21.5 52-1.83-1.333-7-2.4-13 4-7.74-2.027-23.84.679-41.5 5.116m33-61.116c-27-11-39-48.5-39-46.5s-61.5-18-35.5-96.5m74.5 143c-11.67 11.577-34.6 40.008-33 61.116M1767.5 581.5c18.4 0 28.33 18.667 31 28 9.17 5.833 27.4 19.2 27 26m0 0c-.5 8.5 44 40.5 51.5 37.5s53.5 71.5 52 75.5c25.6 0 43 18.667 48.5 28 47.67 87.167 152 269 159.5 257 9.6 24 24.67 32.67 31 34m-342.5-432c40-244.5 7.5-141 21-184s-22.5-72-20-76-29-60.5-41-56.5-32.5-31.5-30-33.5-1-8.5-2.5-6-18.5-3.5-24-16.5-32.5 21-24.5-5-21.5-37-24.5-35-33-2.5-41-11-35.5-15-38.5-10.5-24.5-10.5-29.5-16-4.5 10.5-12 1-46-4-53.5 0-29 14-46 6c-13.6-6.4-62.67 10-85.5 19 32.83-24.833 63.7-52.7-75.5 34.5-174 109-124 385.5-94.5 435m870 530.5c-25.17-40.17-77.6-119.3-86-114.5-8.4 4.8-23.17-4.67-29.5-10-24-.83-78.1-11.5-102.5-47.5-30.69-11.02-109.36-19.86-141.5-33.12m-14-11.88c1-24.333 6.58-88.074 46-124.5 39.5-36.5 98.5-32 109.5-39.5m-155.5 164c0 4.37 5.29 8.28 14 11.88M1252.95 876c.12.5-27.45-17.5-22.45-40-20.11-17.695-29.22-52.21-32.53-64m54.98 104c7.29 32.219 17.89 63.215 32.74 83.5M1196.5 768c.2-.391.66 1.132 1.47 4m0 0c-46.97-66.5-38.8-94.833-23.47-103.5 5.33-1.167 18.7-.3 29.5 12.5m350-31.5 7-33c51.17-9.667 156.8-15.6 170 38-26-38-178-5-174-5m-101 126c-13 13.667-31.2 44.9 0 60.5 7.6-20.8 35.17 2.667 48 17 2 1.333 6.7 3.2 9.5 0 3.5-4 35.5-31 51-13.5 12.4 14 18.17-.167 19.5-9 2.17-8.833 1.3-32.2-19.5-55M1494 693c0 70-2.67 89.167-4 90m38-90c9.2 72 17.5 90 20.5 90M1403 922c14-10 52.7-27 95.5-15 17.2 2.4 27.5 1 30.5 0 25.5 3.167 77.1 12 79.5 22m-205.5-7c17.2 22 48.5 42.5 62 50 16.17 2.667 52.3 7 67.5 3 10 11 79-33.5 76-46m-205.5-7c20 .333 60.4 1.6 62 4 2 3 42.5 10 44.5 8s43.5-5 47.5-2.5 25 7.5 27 5 26.67-4.5 24.5-7.5m106 77.38c40-23.38 32-3.38 43.5-61.38 30-16 12-33 23.5-36s50 .5 50.5-9.5c.34-6.705 9.89 14.017 27 22.218m33.5 46.782c-9.67-5.833-23.8-23.7-3-48.5-11.86 6.754-22.09 5.747-30.5 1.718M1767.5 941c19.67 7 61 19.3 69 12.5 10-8.5 18-19.065 22.5-31.782M1285.69 959.5c-5.69 134.5-8.82 54 0 139m414.81-100c-2.17 37.67-7.7 112.5-12.5 110.5m-325.5-449.082c-11.69 5.017-24.24 13.209-37.5 25.582 36.8 10.8 96 1.5 121-4.5-7.7-10.96-23.04-23.895-44-26.975m-39.5 5.893c-1.67 10.194.3 30.082 21.5 28.082 26.5-2.5 28.5-28.95 18-33.975m-39.5 5.893c14.65-6.291 27.93-7.593 39.5-5.893m211 11.475c-1 9.167 2.3 27.5 23.5 27.5 26.5 0 23.97-26.724 21.99-29.612m0 0c-31.92-11.146-65.96 7.227-82.99 22.112 16.33 8.167 63 21.1 119 7.5-10.85-15.989-23.26-25.158-36.01-29.612zM1279 662.5c3-24 41.2-68.8 170-56 17.6 4 15 22 11.5 30.5-49-5.167-153.9-7.3-181.5 25.5z" stroke="#000" stroke-width="4"/>
<path d="M1805.5 680.5c-14 36.667-40.8 111.3-36 116.5M1991.5 2063c3.67 21.33.2 58.2-43 35-109-83-212.38-79-242.5-79 36-8 112.5 22.5 142 44s-10 62-17.5 64c-6 1.6-95.5-12.33-139.5-19.5-46.8 17.2-218.5 0-296.5-44.5-33.67-8.67-120.1-23.4-196.5-13-95.5 13-831.5-22.5-815.5-41-49 0-37.437-76.25-43.5-100.5-22.5-90 190.5-412 242.5-462m1410 616.5c-36.17-38.5-104.71-103.73-111-107-25-13-136.5-32.5-131-13m242 120c22.17 13.67 69.7 34.3 82.5 7.5 12.8-26.8-35-60.17-60.5-73.5l-82.5-67m0 0c-44-16.67-132.2-47.5-133-37.5-.8 10-20.33-8.17-30-18.5m163 56c1.5-10-32.7-44.3-181.5-101.5-26.8-12-50.17 1.33-58.5 9.5-69-.33-206.5 2.7-204.5 17.5 1.65 12.2-314.65-31.02-524.5-66.91M861.5 1635c-20.167 31.67-64.6 98.5-81 112.5-6.985 5.96 73.042 22.55 181.5 41.09M861.5 1635c24.5-20.5 73.7-59.6 74.5-52 1 9.5 11 91 17.5 91s-1.5 112.89 8.5 114.59M861.5 1635c25-37.5 13.9-139.6-230.5-248-25.6 0-43.667 39.67-49.5 59.5m0 0c-13.167-16.33-36.7-52.7-25.5-67.5 14-18.5 288.499-334 397.5-342.5 10-33 70-38.5 91-21.5 16.8 13.6 64.67-.33 86.5-9 12.17-20.333 56.6-63.5 137-73.5M1945.5 1895c8.5-130 37-385.3 83-366.5 18.4 7.6 19 32.83 17 44.5 30.67 29.17 95.3 87.5 108.5 87.5m0 0c13.2 0-1.83-10.33-11-15.5-7.67-17.83-6.7-64.1 58.5-106.5 18.8 8 62.17 161.33 81.5 237l60 102m-189-217c54.5 37 153.5 204.5 220 264.5l57.5 40.5c6.5 12.83 26.9 38.2 56.5 37 38.5 25.5 137.5-.5 137-10.5s61-52 52-114.5-5-13.5-14-53.5c7.2-41.2-17-121.83-30-157-31.17-69.17-126.1-231.2-256.5-326-21-32.5-194.5-204-207.5-271.5m32.5 466L2075 1211m-788.5-113c114.5 270.5 316.5 215.5 402.5 12" stroke="#000" stroke-width="4"/>
</svg>