<svg width="3014" height="2261" viewBox="0 0 3014 2261" fill="none" xmlns="http://www.w3.org/2000/svg">
<path d="M1239.5 775.5C1240.66 801.347 1244.68 839.46 1252.95 876M1239.5 775.5C1226.7 724.7 1210.5 691.333 1204 681M1239.5 775.5C1233.33 683.167 1235.3 499.4 1292.5 503C1349.7 506.6 1356 521.167 1352 528C1382.5 547.167 1454.4 576.7 1498 541.5C1552.5 497.5 1582.5 496.5 1584 468.5C1585.5 440.5 1600.5 503 1629 510C1651.8 515.6 1642.83 521.333 1635.5 523.5C1648.33 535 1679.3 553.2 1700.5 534C1721.7 514.8 1754 557.667 1767.5 581.5M1688 980C1685.5 1010.5 1566 1103 1496 1081.5C1435 1093 1366.5 1027 1309.5 980C1300.56 976.179 1292.65 969.019 1285.69 959.5M1688 980C1682.4 983.2 1680 978 1679.5 975M1688 980L1700.5 994.5M1679.5 975C1667.67 975.333 1643.2 971.5 1640 953.5C1642 935.1 1655.17 929.5 1661.5 929C1673 907.333 1702.2 860.1 1727 844.5C1732.2 825.3 1745.5 809.167 1751.5 803.5C1765.52 798.377 1788.33 790.81 1809 785.616M1679.5 975C1689.33 937 1715.1 858.5 1739.5 848.5C1770 836 1729 793.5 1933 772C1955.4 768 1964.67 785.667 1966.5 795M1842 724.5C1842 742.1 1856.33 766.5 1863.5 776.5C1861.67 775.167 1856.5 774.1 1850.5 780.5C1842.76 778.473 1826.66 781.179 1809 785.616M1842 724.5C1815 713.5 1803 676 1803 678C1803 680 1741.5 660 1767.5 581.5M1842 724.5C1830.33 736.077 1807.4 764.508 1809 785.616M1767.5 581.5C1785.9 581.5 1795.83 600.167 1798.5 609.5C1807.67 615.333 1825.9 628.7 1825.5 635.5M1825.5 635.5C1825 644 1869.5 676 1877 673C1884.5 670 1930.5 744.5 1929 748.5C1954.6 748.5 1972 767.167 1977.5 776.5C2025.17 863.667 2129.5 1045.5 2137 1033.5C2146.6 1057.5 2161.67 1066.17 2168 1067.5M1825.5 635.5C1865.5 391 1833 494.5 1846.5 451.5C1860 408.5 1824 379.5 1826.5 375.5C1829 371.5 1797.5 315 1785.5 319C1773.5 323 1753 287.5 1755.5 285.5C1758 283.5 1754.5 277 1753 279.5C1751.5 282 1734.5 276 1729 263C1723.5 250 1696.5 284 1704.5 258C1712.5 232 1683 221 1680 223C1677 225 1647 220.5 1639 212C1631 203.5 1603.5 197 1600.5 201.5C1597.5 206 1576 191 1571 185.5C1566 180 1566.5 196 1559 186.5C1551.5 177 1513 182.5 1505.5 186.5C1498 190.5 1476.5 200.5 1459.5 192.5C1445.9 186.1 1396.83 202.5 1374 211.5C1406.83 186.667 1437.7 158.8 1298.5 246C1124.5 355 1174.5 631.5 1204 681M2074 1211.5C2048.83 1171.33 1996.4 1092.2 1988 1097C1979.6 1101.8 1964.83 1092.33 1958.5 1087C1934.5 1086.17 1880.4 1075.5 1856 1039.5C1825.31 1028.48 1746.64 1019.64 1714.5 1006.38M1700.5 994.5C1701.5 970.167 1707.08 906.426 1746.5 870C1786 833.5 1845 838 1856 830.5M1700.5 994.5C1700.5 998.87 1705.79 1002.78 1714.5 1006.38M1252.95 876C1253.07 876.5 1225.5 858.5 1230.5 836C1210.39 818.305 1201.28 783.79 1197.97 772M1252.95 876C1260.24 908.219 1270.84 939.215 1285.69 959.5M1196.5 768C1196.7 767.609 1197.16 769.132 1197.97 772M1197.97 772C1151 705.5 1159.17 677.167 1174.5 668.5C1179.83 667.333 1193.2 668.2 1204 681M1554 649.5L1561 616.5C1612.17 606.833 1717.8 600.9 1731 654.5C1705 616.5 1553 649.5 1557 649.5M1456 775.5C1443 789.167 1424.8 820.4 1456 836C1463.6 815.2 1491.17 838.667 1504 853C1506 854.333 1510.7 856.2 1513.5 853C1517 849 1549 822 1564.5 839.5C1576.9 853.5 1582.67 839.333 1584 830.5C1586.17 821.667 1585.3 798.3 1564.5 775.5M1494 693C1494 763 1491.33 782.167 1490 783M1528 693C1537.2 765 1545.5 783 1548.5 783M1403 922C1417 912 1455.7 895 1498.5 907C1515.7 909.4 1526 908 1529 907C1554.5 910.167 1606.1 919 1608.5 929M1403 922C1420.2 944 1451.5 964.5 1465 972C1481.17 974.667 1517.3 979 1532.5 975C1542.5 986 1611.5 941.5 1608.5 929M1403 922C1423 922.333 1463.4 923.6 1465 926C1467 929 1507.5 936 1509.5 934C1511.5 932 1553 929 1557 931.5C1561 934 1582 939 1584 936.5C1586 934 1610.67 932 1608.5 929M1714.5 1006.38C1754.5 983 1746.5 1003 1758 945C1788 929 1770 912 1781.5 909C1793 906 1831.5 909.5 1832 899.5C1832.34 892.795 1841.89 913.517 1859 921.718M1892.5 968.5C1882.83 962.667 1868.7 944.8 1889.5 920C1877.64 926.754 1867.41 925.747 1859 921.718M1767.5 941C1787.17 948 1828.5 960.3 1836.5 953.5C1846.5 945 1854.5 934.435 1859 921.718M1285.69 959.5C1280 1094 1276.87 1013.5 1285.69 1098.5M1700.5 998.5C1698.33 1036.17 1692.8 1111 1688 1109M1362.5 659.918C1350.81 664.935 1338.26 673.127 1325 685.5C1361.8 696.3 1421 687 1446 681C1438.3 670.04 1422.96 657.105 1402 654.025M1362.5 659.918C1360.83 670.112 1362.8 690 1384 688C1410.5 685.5 1412.5 659.05 1402 654.025M1362.5 659.918C1377.15 653.627 1390.43 652.325 1402 654.025M1613 665.5C1612 674.667 1615.3 693 1636.5 693C1663 693 1660.47 666.276 1658.49 663.388M1658.49 663.388C1626.57 652.242 1592.53 670.615 1575.5 685.5C1591.83 693.667 1638.5 706.6 1694.5 693C1683.65 677.011 1671.24 667.842 1658.49 663.388ZM1279 662.5C1282 638.5 1320.2 593.7 1449 606.5C1466.6 610.5 1464 628.5 1460.5 637C1411.5 631.833 1306.6 629.7 1279 662.5Z" stroke="black" stroke-width="4"/>
<path d="M1805.5 680.5C1791.5 717.167 1764.7 791.8 1769.5 797" stroke="black" stroke-width="4"/>
</svg>
