{
  "accessors": [
    {
      "bufferView": 2,
      "componentType": 5126,
      "count": 533,
      "max": [
        16.058557510375977,
        14.5177001953125,
        0.23201000690460205
      ],
      "min": [
        -13.252492904663086,
        -14.517694473266602,
        -36.23200988769531
      ],
      "type": "VEC3"
    },
    {
      "bufferView": 2,
      "byteOffset": 6396,
      "componentType": 5126,
      "count": 533,
      "max": [
        1.0,
        1.0,
        1.0
      ],
      "min": [
        -1.0,
        -1.0,
        -1.0
      ],
      "type": "VEC3"
    },
    {
      "bufferView": 3,
      "componentType": 5126,
      "count": 533,
      "max": [
        1.0,
        1.0,
        1.0,
        1.0
      ],
      "min": [
        -1.0,
        -1.0,
        -1.0,
        -1.0
      ],
      "type": "VEC4"
    },
    {
      "bufferView": 1,
      "componentType": 5126,
      "count": 533,
      "max": [
        0.9921879768371582,
        0.9921879768371582
      ],
      "min": [
        0.0078119998797774315,
        0.04801797866821289
      ],
      "type": "VEC2"
    },
    {
      "bufferView": 1,
      "byteOffset": 4264,
      "componentType": 5126,
      "count": 533,
      "max": [
        0.9921879768371582,
        0.9921879768371582
      ],
      "min": [
        0.0078119998797774315,
        0.04801797866821289
      ],
      "type": "VEC2"
    },
    {
      "bufferView": 1,
      "byteOffset": 8528,
      "componentType": 5126,
      "count": 533,
      "max": [
        0.9921879768371582,
        0.9921879768371582
      ],
      "min": [
        0.0078119998797774315,
        0.04801797866821289
      ],
      "type": "VEC2"
    },
    {
      "bufferView": 1,
      "byteOffset": 12792,
      "componentType": 5126,
      "count": 533,
      "max": [
        0.9921879768371582,
        0.9921879768371582
      ],
      "min": [
        0.0078119998797774315,
        0.04801797866821289
      ],
      "type": "VEC2"
    },
    {
      "bufferView": 0,
      "componentType": 5125,
      "count": 1590,
      "type": "SCALAR"
    }
  ],
  "asset": {
    "extras": {
      "author": "bikravnis (https://sketchfab.com/bikravnis)",
      "license": "CC-BY-4.0 (http://creativecommons.org/licenses/by/4.0/)",
      "source": "https://sketchfab.com/3d-models/mail-box-46b7907bec634452b45d01cafce0cb71",
      "title": "Mail Box"
    },
    "generator": "Sketchfab-16.8.0",
    "version": "2.0"
  },
  "bufferViews": [
    {
      "buffer": 0,
      "byteLength": 6360,
      "name": "floatBufferViews",
      "target": 34963
    },
    {
      "buffer": 0,
      "byteLength": 17056,
      "byteOffset": 6360,
      "byteStride": 8,
      "name": "floatBufferViews",
      "target": 34962
    },
    {
      "buffer": 0,
      "byteLength": 12792,
      "byteOffset": 23416,
      "byteStride": 12,
      "name": "floatBufferViews",
      "target": 34962
    },
    {
      "buffer": 0,
      "byteLength": 8528,
      "byteOffset": 36208,
      "byteStride": 16,
      "name": "floatBufferViews",
      "target": 34962
    }
  ],
  "buffers": [
    {
      "byteLength": 44736,
      "uri": "scene.bin"
    }
  ],
  "images": [
    {
      "uri": "textures/MailBox_baseColor.png"
    },
    {
      "uri": "textures/MailBox_metallicRoughness.png"
    },
    {
      "uri": "textures/MailBox_normal.png"
    }
  ],
  "materials": [
    {
      "doubleSided": true,
      "name": "MailBox",
      "normalTexture": {
        "index": 2
      },
      "pbrMetallicRoughness": {
        "baseColorTexture": {
          "index": 0
        },
        "metallicFactor": 0.0,
        "metallicRoughnessTexture": {
          "index": 1
        }
      }
    }
  ],
  "meshes": [
    {
      "name": "Object_0",
      "primitives": [
        {
          "attributes": {
            "NORMAL": 1,
            "POSITION": 0,
            "TANGENT": 2,
            "TEXCOORD_0": 3,
            "TEXCOORD_1": 4,
            "TEXCOORD_2": 5,
            "TEXCOORD_3": 6
          },
          "indices": 7,
          "material": 0,
          "mode": 4
        }
      ]
    }
  ],
  "nodes": [
    {
      "children": [
        1
      ],
      "matrix": [
        1.0,
        0.0,
        0.0,
        0.0,
        0.0,
        2.220446049250313e-16,
        -1.0,
        0.0,
        0.0,
        1.0,
        2.220446049250313e-16,
        0.0,
        0.0,
        0.0,
        0.0,
        1.0
      ],
      "name": "Sketchfab_model"
    },
    {
      "children": [
        2
      ],
      "name": "root"
    },
    {
      "children": [
        3
      ],
      "matrix": [
        1.0,
        0.0,
        0.0,
        0.0,
        0.0,
        2.220446049250313e-16,
        1.0,
        0.0,
        0.0,
        -1.0,
        2.220446049250313e-16,
        0.0,
        0.0,
        0.0,
        0.0,
        1.0
      ],
      "name": "GLTF_SceneRootNode"
    },
    {
      "children": [
        4
      ],
      "matrix": [
        1.0,
        0.0,
        0.0,
        0.0,
        0.0,
        -3.371747936409264e-07,
        0.999999999999943,
        0.0,
        0.0,
        -0.999999999999943,
        -3.371747936409264e-07,
        0.0,
        0.0,
        0.0,
        0.0,
        1.0
      ],
      "name": "MailBox_0"
    },
    {
      "mesh": 0,
      "name": "Object_4"
    }
  ],
  "samplers": [
    {
      "magFilter": 9729,
      "minFilter": 9987,
      "wrapS": 10497,
      "wrapT": 10497
    }
  ],
  "scene": 0,
  "scenes": [
    {
      "name": "Sketchfab_Scene",
      "nodes": [
        0
      ]
    }
  ],
  "textures": [
    {
      "sampler": 0,
      "source": 0
    },
    {
      "sampler": 0,
      "source": 1
    },
    {
      "sampler": 0,
      "source": 2
    }
  ]
}
